<?xml version="1.0" encoding="utf-8"?>
<!-- Generator: Adobe Illustrator 21.1.0, SVG Export Plug-In . SVG Version: 6.00 Build 0)  -->
<svg version="1.1" id="Layer_1" xmlns="http://www.w3.org/2000/svg" xmlns:xlink="http://www.w3.org/1999/xlink" x="0px" y="0px"
	 viewBox="0 0 126 92" style="enable-background:new 0 0 126 92;" xml:space="preserve">
<style type="text/css">
	.st0{fill:#0D6333;}
	.st1{fill:#E3F3EF;}
	.st2{fill:#A2C9C3;}
	.st3{fill:#2B8D4F;}
	.st4{fill:#0D4A24;}
	.st5{clip-path:url(#SVGID_2_);fill:url(#SVGID_3_);}
</style>
<g>
	<g>
		<path class="st0" d="M126,18.1c0-0.4-0.2-0.3-0.6-0.5c-0.6-0.2-1.2-0.3-1.8-0.5c-1.2-0.3-2.4-0.7-3.5-1c-2.4-0.7-4.7-1.3-7.1-2
			c-4.8-1.3-9.5-2.7-14.3-4c-9.4-2.7-18.9-5.3-28.3-8c-2.3-0.7-4.7-1.3-7-2c-0.5-0.1-0.9,0-1.4,0.2c-0.6,0.2-1.2,0.3-1.8,0.5
			c-1.2,0.3-2.3,0.7-3.5,1c-4.8,1.3-9.5,2.7-14.3,4c-9.5,2.7-18.9,5.4-28.4,8c-3.1,0.9-6.2,1.8-9.3,2.6c-1.4,0.4-2.9,0.9-4.3,1.2
			c-0.2,0.1-0.4,0-0.4,0.2v1v2.1c2.6,0,5.2,0,7.7-0.1v1.2c0,0.1-0.1,0.3,0.1,0.4c0.1,0.1,0.2,0.1,0.3,0.2c0.4,0.2,0.7,0.5,1.2,0.5
			c0.3,0,0.5,0,0.8,0c0.2,0,0.2,0.2,0.2,0.3c0,0.1,0.1,1.7-0.1,1.7H6.8c0.3,0.3,0.6,0.7,0.8,1c0.1,0.2,0.4,0.7,0.7,0.7
			c0.4,0,0.8,0,1.2,0c0.1,0,0.5,0,0.5,0c0,0.2,0,0.4,0,0.6v2.7v1.3c0,0.1,0.1,0.5,0,0.6c-0.1,0-0.2,0.1-0.4,0.1
			c-0.4,0.1-0.7,0.2-1,0.4c-0.3,0.2-0.7,0.3-0.9,0.6c-0.6,0.7-1,1.5-0.9,2.4c0.1,0.8,0.5,1.5,1,2c0.6,0.6,1.4,0.9,2.3,1.1
			c0,0.1-0.1,0.2-0.2,0.3c-0.1,0-0.3,0-0.4,0c-0.2,0-0.1,0.9-0.1,1C9.4,40,10,40,10.1,40c0,0,0.3,0,0.3,0v0.8v6.1V59v12.3v6.1v3.1
			c0,0,0,0.4,0,0.4c-0.1,0-0.1,0-0.2,0c-0.3,0-0.6,0-0.9,0c-0.7,0-1.3,0-2,0c-0.1,0-0.6-0.1-0.6,0.1c0,0.2,0,0.4,0,0.6v1.6v1.4v0.7
			c0,0.3,0.1,0.3-0.3,0.3c-0.9,0-1.9,0.4-2.4,1.1c-0.3,0.3-0.4,0.6-0.5,1c-0.1,0.3,0,0.6-0.4,0.6c-1,0.1-1.8,0.5-2.4,1.1
			c-0.4,0.5-0.6,1-0.6,1.6c0,0.2,0,0.5,0,0.7c0,0.1,0,0.1,0,0.2c0,0.1,0.5,0,0.6,0h30.1h30.1h30h30c0.4,0,5.1,0,5.1,0
			c0-0.9,0-1.8-0.6-2.6c-0.4-0.4-0.9-0.8-1.5-1c-0.3-0.1-0.7-0.1-1-0.2c-0.3,0-0.2-0.2-0.3-0.4c-0.3-1.3-1.6-2.3-3.3-2.3
			c0.1,0,0.1-1.5,0.1-1.6v-2.3c0-0.1,0.1-0.7-0.1-0.7c-0.2,0-0.4,0-0.6,0c-0.9,0-1.7,0-2.6,0V56.4V44.1v-3.1v-0.7
			c0-0.1-0.1-0.3,0-0.4c0.1-0.1,0.6,0,0.7,0c0.2,0,0.2-0.1,0.2-0.3c0-0.2,0-0.4,0-0.6c0,0,0-0.2,0-0.2c-0.3,0-0.4,0.1-0.5-0.2
			c-0.1-0.2,0.3-0.2,0.4-0.2c0.2-0.1,0.5-0.2,0.7-0.3c0.5-0.2,0.9-0.5,1.2-0.8c1.1-1,1.1-2.7,0.3-3.8c-0.4-0.6-0.9-1-1.6-1.3
			c-0.3-0.1-0.7-0.2-1-0.3c-0.2-0.1-0.1-0.8-0.1-1v-2.4v-1.2c0-0.3-0.1-0.6,0.3-0.6c0.4,0,0.9,0,1.3,0c0.4,0,0.5,0,0.7-0.2
			c0.4-0.5,0.7-1,1-1.5h-1.8c-0.2,0-1.5,0.1-1.5-0.1c0-0.4,0-0.9,0-1.3c0-0.1-0.1-0.5,0-0.6c0.1-0.1,0.4,0,0.5,0c0.2,0,0.5,0,0.7,0
			c0.1-0.1,0.2-0.2,0.4-0.2c0.4-0.2,0.7-0.3,0.7-0.7v-0.7c0-0.1-0.1-0.5,0-0.6c0.1-0.1,0.4,0,0.6,0h1h3.8h1.8c0.2,0,0.1-0.1,0.1-0.3
			C126,19.8,126,18.9,126,18.1"/>
	</g>
	<g>
		<path class="st1" d="M56.3,26.8c-10,0-20.1,0-30.1,0c-3.1,0-6.3,0-9.4,0c-1.6,0-3.2,0-4.7,0c-0.4,0-0.8,0-1.2,0
			c-0.1,0-0.8-0.1-0.8,0.1c0.1,0.6,0,1.2,0,1.8c10,0,20-0.1,29.9-0.1c10,0,20.1-0.1,30.1-0.1c10,0,20.1-0.1,30.1-0.1
			c3,0,6.1,0,9.1,0c1.5,0,3.1,0,4.6,0c0.7,0,1.5,0,2.2,0c0.2,0,0.2,0,0.2-0.1v-0.5v-1c-10,0-20,0-30,0
			C76.3,26.8,66.3,26.8,56.3,26.8"/>
		<path class="st1" d="M121.3,88.8c-0.6-0.1-1.3,0-1.9,0H89.4H59.3h-30H14.4H6.9c-1,0-2.2-0.2-3.2,0.2c-0.4,0.2-0.8,0.5-1.1,0.8
			c-0.3,0.3-0.3,0.7-0.4,1.1c0.5,0,1.1,0,1.6,0c0.3,0,0.6,0,0.9,0c0.2,0,0.3,0.1,0.3-0.1c0-0.1,0-0.1,0-0.2c0.2-0.8,0.9-1.1,1.8-1.3
			c0.1,0.2,0.8,0.1,0.9,0.1h1.6h3.3h6.6h13.1h30.1h30.1h30C122.3,89.1,121.8,88.8,121.3,88.8 M5.2,88.2c0.3,0,0.6,0,0.8,0
			c0.5,0,1.1,0,1.6,0C8,88.3,8,88,8,87.8c0.2-0.7,1-0.9,1.8-1.1c0,0.1,1.6,0.1,1.6,0.1h2.7h5.4h10.6h30h30.1h30
			c-0.2-0.3-0.7-0.4-1.1-0.5c-0.6-0.1-1.2-0.1-1.8-0.1h-3.7H83.5H53.4H23.3h-15c-0.5,0-1,0-1.5,0.1c-0.4,0.1-0.8,0.3-1,0.6
			c-0.4,0.3-0.6,0.7-0.7,1.1C5.1,88,5.1,88.2,5.2,88.2 M116,40.2c0,0,0-0.3,0-0.3h-13.3v1c2.5-0.1,5.1-0.2,7.6-0.4
			c1.3-0.1,2.5-0.1,3.8-0.2c0.6,0,1.2-0.1,1.8-0.1C116,40.4,116,40.4,116,40.2 M113.5,49.2v9.3v12.3V77v3v0.8c0,0.1,0.1,0.1,0.2,0.1
			c0.1,0,0.6,0,0.6,0v-15V41.5c-0.2,0.1-0.4,0.1-0.7,0.3c-0.3,0.1-0.2,0.4-0.2,0.6v2.2V49.2z M105.2,41.5L105.2,41.5
			C105.2,41.5,105.2,41.5,105.2,41.5L105.2,41.5z M104.4,48.9v24.5v6.1v1.4c0,0,0.7,0,0.7,0c0.2,0,0.1-0.3,0.1-0.5v-0.7
			c0-0.5,0-1,0-1.5c0-4.1,0-8.2,0-12.3c0-8.2,0-16.3,0-24.5c-0.2,0.1-0.4,0.1-0.5,0.2c-0.3,0.1-0.2,0.2-0.2,0.5v2.2V48.9z
			 M109.2,49.2v9.3v12.3V77v3v0.8c0,0.1,0.1,0.1,0.2,0.1c0.1,0,0.6,0,0.6,0v-15V41.5c-0.2,0.1-0.5,0.1-0.7,0.3
			c-0.3,0.1-0.2,0.4-0.2,0.6v2.2V49.2z M83.7,41.5L83.7,41.5C83.7,41.5,83.8,41.5,83.7,41.5L83.7,41.5z M43.7,41.5L43.7,41.5
			C43.8,41.5,43.8,41.5,43.7,41.5L43.7,41.5z M23.7,40.4c0.1,0,0.1-0.2,0.1-0.2c0-0.3-0.8-0.1-1-0.1H21h-3.6h-7.1
			c0.1,0,0.1,0.9,0.1,1c2.4-0.1,4.7-0.2,7.1-0.3c1.2-0.1,2.4-0.1,3.6-0.2c0.6,0,1.2-0.1,1.8-0.1C23.1,40.4,23.4,40.4,23.7,40.4
			 M21.9,41.5L21.9,41.5C22,41.5,22,41.5,21.9,41.5L21.9,41.5z M21.2,48.9v24.5v6.1v1.4c0,0,0.7,0,0.7,0c0.2,0,0.1-0.3,0.1-0.5
			c0-0.2,0-0.5,0-0.7c0-0.5,0-1,0-1.5c0-4.1,0-8.2,0-12.3c0-8.2,0-16.3,0-24.5c-0.2,0.1-0.4,0.1-0.5,0.2c-0.3,0.1-0.2,0.2-0.2,0.5
			v2.2V48.9z M12,49.2v9.3v12.3V77v3v0.8c0,0.1,0.1,0.1,0.2,0.1c0.1,0,0.6,0,0.6,0v-15V41.5c-0.2,0.1-0.5,0.1-0.7,0.3
			C12,41.9,12,42.1,12,42.3v2.2V49.2z M16.9,48.9v24.5v6.1v1.4c0,0,0.7,0,0.7,0c0.2,0,0.1-0.3,0.1-0.5c0-0.2,0-0.5,0-0.7
			c0-0.5,0-1,0-1.5c0-4.1,0-8.2,0-12.3c0-8.2,0-16.3,0-24.5c-0.2,0.1-0.4,0.1-0.5,0.2c-0.3,0.1-0.2,0.2-0.2,0.5v2.2V48.9z
			 M17.6,41.5L17.6,41.5C17.7,41.5,17.7,41.5,17.6,41.5L17.6,41.5z M84.8,38.2C84.8,38.2,84.8,38.2,84.8,38.2
			C84.7,38.2,84.7,38.2,84.8,38.2L84.8,38.2z M54,38.2C53.9,38.2,53.9,38.2,54,38.2C53.9,38.2,53.9,38.2,54,38.2L54,38.2z
			 M115.5,33.5c-0.1,0-0.3,0-0.4,0C115.2,33.5,115.3,33.5,115.5,33.5 M115.6,37.1c0.6,0,1.2-0.1,1.6-0.5c0.4-0.4,0.7-0.9,0.6-1.5
			c-0.1-0.5-0.3-0.9-0.8-1.2c-0.2-0.2-0.5-0.3-0.8-0.4c-0.2-0.1-0.5-0.1-0.8-0.1c0.1,0,0.3,0,0.4,0.1c0.3,0.1,0.6,0.3,0.9,0.5
			c0.5,0.3,0.6,0.9,0.7,1.4c0.1,0.9-0.9,1.6-1.9,1.7c-0.8,0-1.6-0.5-1.7-1.2c-0.1-0.7,0.4-1.4,1.4-1.4c-0.5,0-0.9,0-1.3,0.3
			c-0.4,0.3-0.6,0.7-0.5,1.1c0.2,0.9,1.1,1.2,2.1,1.3c-0.1,0-0.1,0-0.2,0H115.6z M100.9,37.4c0.7,0.5,1.7,0.7,2.6,0.8
			c0,0-0.1,0-0.1,0c0.1,0,0.2,0,0.3,0c0,0,0.1,0,0.1,0c0,0,0,0-0.1,0c0.7,0,1.4-0.1,2-0.6c0.7-0.5,1-1.1,1-1.9c0-0.7-0.4-1.2-1-1.7
			c-0.6-0.5-1.4-0.6-2.1-0.6c0.1,0,0.1,0,0.2,0c-0.3,0-0.7,0-1,0c-0.3,0.1-0.6,0.2-0.8,0.4c-0.5,0.3-0.7,0.8-0.8,1.3
			c-0.2,1,0.8,2,2.1,2h0.4c0,0-0.1,0-0.1,0c0.5,0,0.8-0.1,1.3-0.3c0.4-0.2,0.5-0.6,0.6-0.9c0.1-0.4,0-0.8-0.4-1.2
			c-0.4-0.3-0.9-0.3-1.3-0.3c0.9,0,1.6,0.7,1.4,1.5c-0.2,0.7-0.9,1.1-1.7,1.2c-0.6,0-1.1-0.3-1.4-0.7c-0.1-0.2-0.4-0.4-0.4-0.6
			c-0.1-0.2,0-0.4,0-0.6c0-0.4,0.3-0.9,0.6-1.2c0.2-0.2,0.6-0.3,0.8-0.4c0.2-0.1,0.4-0.1,0.6-0.1c1.4,0,2.7,1,2.8,2.2
			c0.1,1.3-1.1,2.4-2.6,2.5c-0.8-0.1-1.6-0.2-2.2-0.7c-0.7-0.5-1.1-1.1-1.2-1.9c-0.1-0.7,0.2-1.6,0.8-2.1c0.3-0.2,0.7-0.5,1.1-0.6
			c0.4-0.1,1-0.1,1.5-0.1c2.1-0.1,4.3,0,6.4,0h3.3h1.6c0.4,0,0.7,0.1,1-0.2c-0.1,0.1-0.1,0.1-0.2,0.2c0.4,0,0.9,0,1.3,0.2
			c0.4,0.1,0.7,0.4,1,0.6c0.6,0.6,0.9,1.3,0.8,2c-0.1,0.8-0.6,1.4-1.2,1.9c-0.6,0.5-1.4,0.6-2.3,0.7c-0.7-0.1-1.3-0.3-1.8-0.7
			c-0.6-0.4-0.7-1-0.8-1.6c-0.1-0.6,0.3-1.3,0.8-1.7c0.5-0.4,1.3-0.7,2.1-0.7c-0.8,0-1.7,0.1-2.3,0.6c-0.6,0.5-1,1-1,1.7
			c0,0.7,0.3,1.3,0.9,1.8c0.6,0.4,1.2,0.6,2,0.6c0,0,0,0-0.1,0c0,0,0.1,0,0.2,0c0.1,0,0.2,0,0.2,0c-0.1,0-0.1,0-0.2,0
			c0.5,0,1-0.1,1.4-0.2c0.5-0.1,0.8-0.3,1.2-0.6c0.3-0.2,0.6-0.5,0.7-0.8c0.2-0.4,0.3-0.7,0.4-1.1c0.1-0.8-0.2-1.6-0.9-2.2
			c-0.7-0.6-1.5-0.8-2.5-0.9h-6.7h-3.3h-1.6c-0.3,0-0.7-0.1-0.9,0.2c0-0.1,0.1-0.1,0.1-0.2c-0.9,0.1-1.8,0.3-2.4,0.9
			c-0.7,0.6-1,1.3-1,2.1C99.8,36.2,100.2,36.9,100.9,37.4 M106,37.9c-0.7,0.5-1.5,0.8-2.4,0.8h11.6c-1.6,0-3.1-1-3.5-2.3
			c-0.4-1.3,0.5-2.9,2.2-3.3h-8.9c1.5,0.4,2.3,1.7,2.2,2.9C107.1,36.8,106.6,37.5,106,37.9 M23.1,38.2C23.1,38.2,23,38.2,23.1,38.2
			C23,38.2,23,38.2,23.1,38.2L23.1,38.2z M8.5,37.4c0.4,0.3,0.8,0.5,1.3,0.6c0.5,0.1,1.1,0.2,1.6,0.2c-0.9-0.1-1.7-0.3-2.5-0.8
			c-0.6-0.5-1.1-1.2-1.2-1.9c-0.2-1.4,1.1-2.8,2.9-2.8c2.2-0.1,4.4,0,6.6,0h3.4h1.6c0.4,0,0.9,0.1,1.2-0.2c-0.1,0.1-0.1,0.1-0.2,0.2
			c0.5,0.1,0.9,0.1,1.4,0.3c0.4,0.2,0.7,0.4,1,0.7c0.6,0.6,0.8,1.2,0.6,2c-0.1,0.7-0.5,1.3-1.2,1.8c-0.7,0.5-1.4,0.6-2.3,0.7
			c-1.5-0.1-2.6-1.2-2.6-2.4c0-1.2,1.2-2.2,2.7-2.3c1.1,0.1,2.1,0.8,2.1,1.8c0,0.2,0.1,0.5-0.1,0.7c-0.2,0.3-0.3,0.5-0.6,0.7
			c-0.4,0.3-1,0.4-1.5,0.4h0.3c0.6,0,1.1-0.2,1.6-0.5c0.6-0.4,0.7-1,0.7-1.6c0-0.4-0.4-0.8-0.8-1.1c-0.2-0.2-0.5-0.3-0.8-0.4
			c-0.4-0.1-0.8-0.1-1.2-0.1c0,0,0.1,0,0.1,0c-0.7,0-1.5,0.1-2,0.6c-0.6,0.5-1,1.1-1,1.9c0,0.6,0.4,1.3,1,1.7
			c0.6,0.4,1.2,0.5,1.9,0.5c0,0,0,0-0.1,0c0,0,0.1,0,0.1,0c0.1,0,0.1,0,0.2,0c0,0-0.1,0-0.1,0c0.9,0,1.9-0.2,2.6-0.7
			c0.6-0.5,1.1-1.2,1.2-1.9c0.1-0.8-0.2-1.6-0.9-2.2c-0.7-0.7-1.6-0.9-2.6-1h-6.6h-3.3h-1.6c-0.4,0-0.8-0.1-1.1,0.2
			c0.1-0.1,0.1-0.1,0.2-0.2h-0.1c-0.5,0.1-1,0.1-1.4,0.3c-0.4,0.1-0.8,0.5-1.1,0.7c-0.6,0.6-0.9,1.4-0.8,2.2
			C7.5,36.2,7.8,37,8.5,37.4 M10.8,33.5c0.2,0,0.4,0,0.6,0C11.2,33.5,11,33.4,10.8,33.5 M9.7,34c0.3-0.2,0.6-0.4,0.9-0.5
			c0,0,0.1,0,0.1,0c-0.5,0-1,0.2-1.4,0.5c-0.4,0.4-0.7,0.9-0.7,1.4c0,0.9,1,1.7,2.1,1.7h0.4c-1.3,0-2.3-0.9-2.1-2
			C9.1,34.7,9.3,34.2,9.7,34 M11.3,38.7h11.5c-1.6,0-3-0.9-3.4-2.1c-0.5-1.3,0.5-3,2.1-3.4h-8.9c1.6,0.4,2.5,1.9,2.2,3.2
			C14.5,37.7,12.9,38.7,11.3,38.7"/>
		<path class="st1" d="M88.6,22.4H58.5H28.4H7.7c0.2,0.1,0.5,0.2,0.7,0.4c0.2,0.1,0.5,0.3,0.7,0.3h1.9h3.7h7.5h15.1h30.1h30.1h11.1
			h5.5h2.6c0.3,0,0.7,0.1,1-0.1c0.4-0.2,0.7-0.4,1.1-0.6H88.6z M86.4,26.8c-10,0-20.1,0-30.1,0c-10,0-20.1,0-30.1,0
			c-3.3,0-6.7,0-10,0c-1.6,0-3.3,0-4.9,0c-0.4,0-0.8,0-1.1,0c-0.2,0-0.1,0.1-0.1,0.2c0,0.3,0,0.6,0,0.9c10,0,20-0.1,29.9-0.1
			c10,0,20.1-0.1,30.1-0.1c10,0,20.1-0.1,30.1-0.1c3.1,0,6.2,0,9.3,0c1.5,0,3.1,0,4.6,0c0.8,0,1.5,0,2.3,0c0,0,0-0.7,0-0.7
			C106.3,26.8,96.4,26.8,86.4,26.8"/>
		<path class="st1" d="M18.8,37.4c-0.2-0.2-0.4-0.4-0.4-0.7c0-0.2,0-0.5-0.2-0.6c-0.1-0.1-0.5,0-0.6,0h-0.7H16c-0.1,0-0.5,0-0.6,0
			c-0.2,0.1-0.2,0.4-0.2,0.5c-0.2,0.6-0.7,1.1-1.4,1.4c0.1,0.2,0.7,0.1,0.9,0.1c0.5,0,1.1,0,1.7,0h3.5C19.4,38,19.1,37.7,18.8,37.4"
			/>
		<path class="st1" d="M18.7,34.2c0.1-0.2,0.3-0.3,0.4-0.4c-1.4,0.1-2.9,0.2-4.3,0.3c0.2,0.1,0.2,0.5,0.4,0.6c0.2,0.1,0.6,0,0.8,0
			H17h0.8c0.1,0,0.6,0.1,0.7,0C18.6,34.5,18.7,34.3,18.7,34.2"/>
		<path class="st1" d="M15.5,35.8c0.2,0.1,0.4,0,0.6,0c0.4,0,0.8,0,1.1,0c0.1,0,1,0.1,1-0.1c0-0.3,0.1-0.5,0.1-0.8
			c-0.8,0-1.6,0.1-2.4,0c-0.1,0-0.5-0.1-0.5,0.1c0,0.2,0.1,0.3,0.1,0.5C15.4,35.6,15.4,35.8,15.5,35.8"/>
		<path class="st2" d="M18.3,34.9C18.3,35,18.3,35,18.3,34.9L18.3,34.9C18.3,35,18.3,35,18.3,34.9"/>
		<path class="st1" d="M110.7,36.7c0-0.1-0.1-0.5-0.2-0.5H109c-0.2,0-1.1-0.1-1.3,0.1c-0.1,0.2-0.2,0.4-0.2,0.5
			c-0.2,0.6-0.7,1.1-1.3,1.4c0,0.1,2.2,0.1,2.3,0.1h3.6C111.5,37.7,111,37.3,110.7,36.7"/>
		<path class="st2" d="M111,33.8L111,33.8C111,33.8,111,33.8,111,33.8L111,33.8z"/>
		<path class="st1" d="M111,33.8c-0.9,0.1-1.8,0.1-2.7,0.2c-0.2,0-1,0-1.1,0.1c-0.1,0.1,0.2,0.3,0.3,0.5c0.1,0.2,0.9,0.1,1.1,0.1
			h1.3c0.1,0,0.5,0.1,0.6,0c0.1,0,0.1-0.1,0.1-0.2c0.1-0.1,0.1-0.3,0.2-0.4C110.8,34,110.9,33.9,111,33.8"/>
		<path class="st2" d="M110.5,34.9C110.5,35,110.5,35,110.5,34.9L110.5,34.9C110.6,35,110.6,35,110.5,34.9"/>
		<path class="st1" d="M109.9,35.8c0.2,0,0.2-0.3,0.2-0.4c0-0.1,0.3-0.3,0.3-0.4c-0.8,0-1.6,0-2.3,0c0,0-0.5,0-0.5,0
			c0,0.1,0.1,0.3,0.1,0.4c0,0.1,0,0.2,0,0.3C107.7,35.9,109.7,35.8,109.9,35.8"/>
		<path class="st1" d="M115.6,23.1h-7.5h-15h-30h-30H18.2h-7.4c-0.3,0-0.5-0.1-0.5,0.1v0.7v1.2c0,0,27.3,0,29.8,0h30.1h30h16.1v-1.2
			v-0.6v-0.1C116.3,23.1,115.6,23.1,115.6,23.1"/>
		<path class="st2" d="M118.7,20.9H97.9H67.8H37.7h-30c0,0.2,0,0.4-0.1,0.5h22.8h30.2h30.2h15h7.5h3.8h1c0.1,0,0.5,0.1,0.5-0.1
			C118.7,21.3,118.6,20.9,118.7,20.9"/>
		<path class="st3" d="M62.9,4.8c-9.4,2.7-18.9,5.4-28.3,8.1c-7.8,2.2-15.5,4.4-23.3,6.6c2.5-0.2,5-0.4,7.5-0.6
			c1.3-0.1,2.5-0.2,3.8-0.3c0.6,0,1.2-0.1,1.8-0.1c0.6,0,1.1-0.2,1.7-0.4c4.7-1.3,9.4-2.7,14.2-4c4.5-1.3,9-2.5,13.5-3.8
			C56,9.6,58.3,9,60.5,8.3c0.6-0.2,1.1-0.3,1.7-0.5c0.2-0.1,0.4-0.1,0.6-0.2C63,7.6,63,7.4,63,7.4C62.9,6.5,62.9,5.7,62.9,4.8"/>
		<path class="st4" d="M91.3,12.9c-9.5-2.7-18.9-5.4-28.4-8c0,0.9,0,1.7,0,2.6c0,0.3,0.7,0.3,1,0.4c0.5,0.2,1.1,0.3,1.6,0.5
			c2.3,0.7,4.7,1.3,7,2c9.5,2.7,19,5.4,28.4,8.1H71.3H41.2c-5,0-10,0-14.9,0c-2.5,0-5,0.3-7.5,0.5c-2.5,0.2-5,0.4-7.5,0.6h13.1h30.2
			h30.2h29.9C106.9,17.3,99.1,15.1,91.3,12.9"/>
		<path class="st1" d="M81.3,12.8c-4.7-1.3-9.5-2.7-14.2-4c-1.2-0.3-2.3-0.7-3.5-1c-0.2-0.1-0.5-0.2-0.8-0.1
			c-0.2,0.1-0.4,0.1-0.6,0.2c-0.5,0.2-1.1,0.3-1.6,0.5c-2.4,0.7-4.7,1.3-7.1,2c-9.5,2.7-19,5.4-28.5,8.1H41h30.2H101
			C94.4,16.5,87.9,14.7,81.3,12.8"/>
		<path class="st1" d="M118.1,81.8c0-0.2-1.3-0.1-1.5-0.1h-3.7H97.8H67.7H37.6h-15h-7.5h-3.8c-1.1,0-2.3,0-3.4,0
			c-0.1,0-0.3,0-0.2-0.1c0,0.8,0,1.7,0,2.5c0,0.4,0,0.8,0,1.2c0,0.2,0,0.1,0.3,0.1h1.9h15h30.2h30.1h30h1.8h0.9c0.2,0,0.4,0,0.4-0.2
			c-0.1-0.9,0-1.8,0-2.7C118.1,82.3,118.2,82,118.1,81.8"/>
	</g>
	<g>
		<defs>
			<path id="SVGID_1_" d="M23.2,31.9c4.9,0.4,4,4.2,4,4.2c-0.1,1.8-3.2,2.6-3.2,2.6l0.3,0.3l0.4,0l0,1l-1,0.4l0.1,40.8l78.7,0.2
				V40.1l-0.7,0l-0.1-1.1l0.5,0l0.1-0.3c-3.1-0.5-3.3-3.4-3.3-3.4c0.6-3.3,3.9-3.4,3.9-3.4H23.2z"/>
		</defs>
		<clipPath id="SVGID_2_">
			<use xlink:href="#SVGID_1_"  style="overflow:visible;"/>
		</clipPath>
		
			<linearGradient id="SVGID_3_" gradientUnits="userSpaceOnUse" x1="-345.523" y1="757.7784" x2="-343.7301" y2="757.7784" gradientTransform="matrix(0 27.6701 27.6701 0 -20904.7324 9592.5752)">
			<stop  offset="0" style="stop-color:#FFFFFF"/>
			<stop  offset="0.6742" style="stop-color:#D6E4E1"/>
			<stop  offset="0.8272" style="stop-color:#D5E3E0"/>
			<stop  offset="0.8822" style="stop-color:#CEDFDC"/>
			<stop  offset="0.9213" style="stop-color:#C3D9D5"/>
			<stop  offset="1" style="stop-color:#7AA9A2"/>
		</linearGradient>
		<rect x="23.2" y="31.9" class="st5" width="79.8" height="49.6"/>
	</g>
	<g>
		<path class="st4" d="M43.8,42.6c-0.8-1.2-2.1-2-4-2c-2.5,0-5.1,2.1-5.1,6.3c0,3.2,1.8,5.6,4.9,5.6c0.7,0,1.9-0.1,2.2-0.4
			c0.1-0.3,0.1-0.8,0.1-1.4c0-2.2-0.1-3.1-0.1-3.5c0.3,0,0.7,0.1,1.5,0.1c1,0,1.4-0.1,1.6-0.1c-0.1,0.4-0.2,2.1-0.2,3.4
			c0,0.9,0,1.9,0.1,2.2c-1.8,0.5-3.6,0.9-5.4,0.9c-4.6,0-8-2.6-8-6.8c0-5.1,3.6-7.7,8.4-7.7c2,0,3.4,0.4,4.9,1.2
			c-0.2,0.7-0.4,1.4-0.6,2.1H43.8z"/>
		<path class="st4" d="M51,40.7c0,1.8-0.1,3.7-0.1,5.5c0.2,0,0.3,0,0.4,0c1.8,0,2.7-1,2.7-2.9C54.1,41,53.2,40.7,51,40.7 M51.1,47.1
			h-0.2v0.8c0,2.3,0,3.8,0.2,5.6c-0.4,0-1-0.1-1.7-0.1s-1.2,0.1-1.7,0.1c0.1-1.8,0.2-3.3,0.2-5.6v-2.7c0-2.3,0-3.8-0.2-5.6
			c0.4,0,1,0.1,1.7,0.1c0.7,0,1.6-0.1,3-0.1c2,0,2.8,0.2,3.5,0.7c0.8,0.6,1.3,1.5,1.3,2.7c0,2-1.1,3.2-3.1,3.7
			c1.3,2.3,2.8,4.6,4.3,6.9c-0.6,0-1.2-0.1-1.8-0.1c-0.6,0-1.2,0.1-1.8,0.1L51.1,47.1z"/>
		<path class="st4" d="M60.1,45.2c0-2.3,0-3.8-0.2-5.6c1.2,0,2.4,0.1,3.6,0.1c2,0,3.7,0,4.2-0.1c0,0.2-0.1,0.5-0.1,0.8
			c0,0.4,0,0.6,0.1,0.9c-1.5-0.1-4-0.2-4.6-0.2c-0.1,1.5-0.1,2.9-0.1,4.4c1.8,0,3.1-0.1,4.6-0.2c-0.1,0.5-0.1,0.6-0.1,0.9
			c0,0.2,0,0.4,0.1,0.8c-1.5-0.1-3.1-0.2-4.6-0.2c0,0.8,0,1.7,0,2.6c0,0.9,0,1.7,0.1,2.5c1.5,0,3.1-0.1,4.6-0.3
			c0,0.3-0.1,0.5-0.1,0.9c0,0.4,0,0.6,0.1,0.9c-0.7,0-1.7-0.1-3.5-0.1c-3.3,0-3.8,0.1-4.3,0.1c0.1-1.8,0.2-3.3,0.2-5.6V45.2z"/>
		<path class="st4" d="M70.2,45.2c0-2.3,0-3.8-0.2-5.6c1.2,0,2.4,0.1,3.6,0.1c2,0,3.7,0,4.2-0.1c0,0.2-0.1,0.5-0.1,0.8
			c0,0.4,0,0.6,0.1,0.9c-1.5-0.1-4-0.2-4.6-0.2c-0.1,1.5-0.1,2.9-0.1,4.4c1.8,0,3.1-0.1,4.6-0.2c-0.1,0.5-0.1,0.6-0.1,0.9
			c0,0.2,0,0.4,0.1,0.8c-1.5-0.1-3.1-0.2-4.6-0.2c0,0.8,0,1.7,0,2.6c0,0.9,0,1.7,0.1,2.5c1.5,0,3.1-0.1,4.6-0.3
			c0,0.3-0.1,0.5-0.1,0.9c0,0.4,0,0.6,0.1,0.9c-0.7,0-1.7-0.1-3.5-0.1c-3.3,0-3.8,0.1-4.3,0.1c0.1-1.8,0.2-3.3,0.2-5.6V45.2z"/>
		<path class="st4" d="M80.5,39.6c0.3,0.1,0.6,0.1,0.9,0.1c0.3,0,0.6,0,0.9-0.1c2.9,3.2,5.8,6.4,8.8,9.6c0-3.2,0-8.7-0.1-9.6
			c0.3,0.1,0.6,0.1,0.9,0.1c0.3,0,0.6,0,0.9-0.1c-0.3,5.9-0.3,8.6-0.3,13.9c-0.3-0.1-0.5-0.1-0.8-0.1c-0.3,0-0.5,0-0.8,0.1
			c-2.8-3.3-5.7-6.5-8.8-9.8c0,1.5,0,3.2,0,4.7c0,3.2,0.1,4.4,0.1,5.1c-0.3-0.1-0.6-0.1-0.9-0.1c-0.3,0-0.6,0-0.9,0.1
			c0.1-0.6,0.4-5.8,0.4-9.9C80.6,41.8,80.6,40.5,80.5,39.6"/>
		<path class="st4" d="M30.1,66.5c-0.4,0-0.6,0-0.9,0c0,0.6,0,1.1,0,2c0,1.3,0,2.8,0,3.5c0.4,0,0.7,0,1.1,0c1.2,0,2.2-1,2.2-2.7
			C32.6,67.4,31.7,66.5,30.1,66.5 M30.3,60.4c-0.6,0-0.7,0-1,0.1c0,1-0.1,2.1-0.1,2.8c0,0.7,0,1.4,0,2.1h0.9c1.2,0,2.3-0.8,2.3-2.6
			C32.5,61.5,31.9,60.4,30.3,60.4 M26.2,64.8c0-2.3,0-3.8-0.2-5.6c0.4,0,1,0.1,1.7,0.1c1.1,0,2.5-0.1,3.6-0.1c2.4,0,4.1,0.9,4.1,3.1
			c0,2.2-2,3.1-3.3,3.3v0c1.2,0.1,3.6,0.9,3.6,3.4c0,2.9-2.3,4-4.7,4c-1.1,0-2-0.1-3-0.1c-0.7,0-1.6,0.1-2,0.1
			c0.1-1.8,0.2-3.3,0.2-5.6V64.8z"/>
		<path class="st4" d="M44.2,67.9c-0.6-1.6-1.1-3.2-1.8-4.8c-0.7,1.6-1.3,3.2-1.9,4.8H44.2z M49.6,73.2c-0.6,0-1.2-0.1-1.8-0.1
			c-0.6,0-1.2,0.1-1.7,0.1c-0.4-1.4-0.9-2.8-1.4-4.1c-0.9,0-1.7,0-2.6,0c-0.7,0-1.4,0-2.1,0c-0.5,1.4-1,2.7-1.4,4.1
			c-0.3,0-0.6-0.1-0.9-0.1c-0.3,0-0.6,0.1-1,0.1c1-2.2,4-9.4,5.8-14c0.3,0,0.5,0.1,0.8,0.1c0.3,0,0.5-0.1,0.8-0.1
			C45.7,63.7,48.1,69.9,49.6,73.2"/>
		<path class="st4" d="M51.8,59.2c0.3,0.1,0.6,0.1,0.9,0.1c0.3,0,0.6,0,0.9-0.1c2.9,3.2,5.8,6.4,8.8,9.6c0-3.2,0-8.7-0.1-9.6
			c0.3,0.1,0.6,0.1,0.9,0.1c0.3,0,0.6,0,0.9-0.1c-0.3,5.9-0.3,8.6-0.3,13.9c-0.3-0.1-0.5-0.1-0.8-0.1c-0.3,0-0.5,0-0.8,0.1
			c-2.8-3.3-5.7-6.5-8.8-9.8c0,1.5,0,3.2,0,4.7c0,3.2,0.1,4.4,0.1,5.1c-0.3-0.1-0.6-0.1-1-0.1c-0.3,0-0.6,0-0.9,0.1
			c0.1-0.6,0.4-5.8,0.4-9.9C51.9,61.4,51.8,60.2,51.8,59.2"/>
		<path class="st4" d="M70.2,66.8c0,2.9,0,5.1,0.2,6.3c-0.4,0-1-0.1-1.7-0.1c-0.7,0-1.2,0.1-1.7,0.1c0.1-1.8,0.2-3.3,0.2-5.6v-2.7
			c0-2.3,0-3.8-0.2-5.6c0.4,0,1,0.1,1.7,0.1c0.7,0,1.2-0.1,1.7-0.1c-0.2,1.1-0.2,3.8-0.2,6.4c1.8-2.1,4.4-5.4,5.1-6.4
			c0.4,0,0.7,0.1,1.1,0.1c0.4,0,0.7-0.1,1.2-0.1c-0.9,0.9-4.2,4.5-5.2,5.8c1.7,2.6,4.4,6.7,5.5,8.1c-0.8,0-1.4-0.1-2-0.1
			c-0.6,0-1.2,0.1-1.8,0.1C72.9,71.1,71.6,68.9,70.2,66.8L70.2,66.8z"/>
		<path class="st4" d="M79.5,64.8c0-2.3,0-3.8-0.2-5.6c1.2,0,2.4,0.1,3.6,0.1c2,0,3.7,0,4.2-0.1c0,0.2-0.1,0.5-0.1,0.9
			c0,0.4,0,0.6,0.1,0.9c-1.5-0.1-4-0.2-4.6-0.2c-0.1,1.5-0.1,2.9-0.1,4.4c1.8,0,3.1-0.1,4.6-0.2C87,65.5,87,65.6,87,65.9
			c0,0.2,0,0.4,0.1,0.8c-1.5-0.1-3.1-0.2-4.6-0.2c0,0.9,0,1.7,0,2.6c0,0.8,0,1.7,0.1,2.5c1.5,0,3.1-0.1,4.6-0.3
			c0,0.3-0.1,0.5-0.1,0.9c0,0.4,0,0.6,0.1,0.9c-0.7,0-1.7-0.1-3.5-0.1c-3.3,0-3.8,0.1-4.3,0.1c0.1-1.8,0.2-3.3,0.2-5.6V64.8z"/>
		<path class="st4" d="M92.9,60.4c0,1.8-0.1,3.7-0.1,5.5c0.2,0,0.3,0,0.4,0c1.8,0,2.7-1,2.7-2.9C96,60.7,95.1,60.4,92.9,60.4
			 M93,66.8h-0.2v0.8c0,2.3,0,3.8,0.2,5.6c-0.4,0-1-0.1-1.7-0.1c-0.7,0-1.2,0.1-1.7,0.1c0.1-1.8,0.2-3.3,0.2-5.6v-2.7
			c0-2.3,0-3.8-0.2-5.6c0.4,0,1,0.1,1.7,0.1c0.7,0,1.6-0.1,3-0.1c2,0,2.8,0.2,3.5,0.7c0.8,0.6,1.3,1.5,1.3,2.7c0,2-1.1,3.2-3.1,3.7
			c1.3,2.3,2.8,4.6,4.3,6.9c-0.6,0-1.2-0.1-1.8-0.1c-0.6,0-1.2,0.1-1.8,0.1L93,66.8z"/>
	</g>
</g>
</svg>
